<svg width="2977" height="2977" viewBox="0 0 2977 2977" fill="none" xmlns="http://www.w3.org/2000/svg">
<path d="M2578.15 1488.5C2578.15 1679.77 2527.81 1867.68 2432.17 2033.33L1488.5 1488.5H2578.15Z" fill="#0F97FD"/>
<path d="M398.846 1488.5C398.846 1297.23 449.195 1109.32 544.832 943.672L1488.5 1488.5L398.846 1488.5Z" fill="#0F97FD"/>
<path d="M2033.33 2432.17C1867.68 2527.81 1679.78 2578.16 1488.5 2578.16L1488.5 1488.5L2033.33 2432.17Z" fill="#0F97FD"/>
<path d="M943.67 544.828C1109.32 449.19 1297.22 398.842 1488.5 398.842L1488.5 1488.5L943.67 544.828Z" fill="#0F97FD"/>
<path d="M943.675 2432.17C778.027 2336.53 640.471 2198.98 544.834 2033.33L1488.5 1488.5L943.675 2432.17Z" fill="#0F97FD"/>
<path d="M2033.32 544.828C2198.97 640.465 2336.53 778.021 2432.17 943.67L1488.5 1488.5L2033.32 544.828Z" fill="#0F97FD"/>
<path d="M2432.17 2033.33C2336.53 2198.97 2198.97 2336.53 2033.33 2432.17L1488.5 1488.5L2432.17 2033.33Z" fill="#141942"/>
<path d="M544.833 943.672C640.471 778.024 778.026 640.468 943.675 544.831L1488.5 1488.5L544.833 943.672Z" fill="#141942"/>
<path d="M1488.5 2578.15C1297.23 2578.15 1109.32 2527.8 943.673 2432.17L1488.5 1488.5L1488.5 2578.15Z" fill="#141942"/>
<path d="M1488.5 398.845C1679.77 398.845 1867.68 449.194 2033.33 544.831L1488.5 1488.5L1488.5 398.845Z" fill="#141942"/>
<path d="M544.834 2033.32C449.197 1867.68 398.848 1679.77 398.848 1488.5L1488.5 1488.5L544.834 2033.32Z" fill="#141942"/>
<path d="M2432.17 943.673C2527.8 1109.32 2578.15 1297.23 2578.15 1488.5L1488.5 1488.5L2432.17 943.673Z" fill="#141942"/>
</svg>
