<svg width="1920" height="147" viewBox="0 0 1920 147" fill="none" xmlns="http://www.w3.org/2000/svg">
<g clip-path="url(#clip0_404_618)">
<path d="M234.386 322.657C234.386 483.103 104.238 613.171 -56.307 613.171C-216.852 613.171 -347 483.103 -347 322.657C-347 162.21 -216.852 32.142 -56.307 32.142C104.238 32.142 234.386 162.21 234.386 322.657Z" fill="#0F97FD"/>
<path d="M1486.22 426.5C1486.22 565.099 1373.8 677.455 1235.11 677.455C1096.43 677.455 984.003 565.099 984.003 426.5C984.003 287.901 1096.43 175.545 1235.11 175.545C1373.8 175.545 1486.22 287.901 1486.22 426.5Z" fill="#0F97FD"/>
<path d="M2149.25 426.5C2149.25 662.049 1958.18 853 1722.49 853C1486.79 853 1295.72 662.049 1295.72 426.5C1295.72 190.951 1486.79 0 1722.49 0C1958.18 0 2149.25 190.951 2149.25 426.5Z" fill="#0F97FD"/>
<path d="M2268 409.193C2268 591.488 2120.13 739.267 1937.72 739.267C1755.32 739.267 1607.45 591.488 1607.45 409.193C1607.45 226.898 1755.32 79.1188 1937.72 79.1188C2120.13 79.1188 2268 226.898 2268 409.193Z" fill="#0F97FD"/>
<path d="M1169.55 436.39C1169.55 659.65 988.453 840.638 765.055 840.638C541.658 840.638 360.559 659.65 360.559 436.39C360.559 213.13 541.658 32.142 765.055 32.142C988.453 32.142 1169.55 213.13 1169.55 436.39Z" fill="#0F97FD"/>
<path d="M734.131 436.39C734.131 659.65 553.031 840.638 329.634 840.638C106.237 840.638 -74.8619 659.65 -74.8619 436.39C-74.8619 213.13 106.237 32.142 329.634 32.142C553.031 32.142 734.131 213.13 734.131 436.39Z" fill="#0F97FD"/>
<path d="M1552.22 632.109C1552.22 501.381 1658.28 395.406 1789.11 395.406C1919.94 395.406 2026 501.381 2026 632.109C2026 762.836 1919.94 868.812 1789.11 868.812C1658.28 868.812 1552.22 762.836 1552.22 632.109Z" fill="#0F97FD"/>
<path d="M532.082 547.5C532.082 434.574 623.699 343.029 736.715 343.029C849.73 343.029 941.347 434.574 941.347 547.5C941.347 660.426 849.73 751.971 736.715 751.971C623.699 751.971 532.082 660.426 532.082 547.5Z" fill="#0F97FD"/>
<path d="M-8.228 547.5C-8.228 355.581 147.476 200 339.546 200C531.617 200 687.321 355.581 687.321 547.5C687.321 739.419 531.617 895 339.546 895C147.476 895 -8.228 739.419 -8.228 547.5Z" fill="#0F97FD"/>
<path d="M-105 561.601C-105 413.073 15.5013 292.667 164.147 292.667C312.793 292.667 433.294 413.073 433.294 561.601C433.294 710.13 312.793 830.536 164.147 830.536C15.5013 830.536 -105 710.13 -105 561.601Z" fill="#0F97FD"/>
<path d="M790.141 539.442C790.141 357.536 937.721 210.072 1119.77 210.072C1301.82 210.072 1449.4 357.536 1449.4 539.442C1449.4 721.348 1301.82 868.812 1119.77 868.812C937.721 868.812 790.141 721.348 790.141 539.442Z" fill="#0F97FD"/>
<path d="M1144.97 539.442C1144.97 357.536 1292.55 210.072 1474.6 210.072C1656.65 210.072 1804.23 357.536 1804.23 539.442C1804.23 721.348 1656.65 868.812 1474.6 868.812C1292.55 868.812 1144.97 721.348 1144.97 539.442Z" fill="#0F97FD"/>
<path d="M1620.68 302.623C1620.68 423.272 1718.58 521.077 1839.34 521.077C1960.1 521.077 2058 423.272 2058 302.623C2058 181.975 1960.1 84.1694 1839.34 84.1694C1718.58 84.1694 1620.68 181.975 1620.68 302.623Z" fill="#0F97FD"/>
<path d="M679.053 380.709C679.053 484.929 763.619 569.416 867.937 569.416C972.255 569.416 1056.82 484.929 1056.82 380.709C1056.82 276.489 972.255 192.002 867.937 192.002C763.619 192.002 679.053 276.489 679.053 380.709Z" fill="#0F97FD"/>
<path d="M180.324 380.709C180.324 557.832 324.045 701.418 501.334 701.418C678.623 701.418 822.344 557.832 822.344 380.709C822.344 203.586 678.623 60 501.334 60C324.045 60 180.324 203.586 180.324 380.709Z" fill="#0F97FD"/>
<path d="M90.9999 367.695C90.9999 504.772 202.227 615.896 339.434 615.896C476.64 615.896 587.867 504.772 587.867 367.695C587.867 230.617 476.64 119.494 339.434 119.494C202.227 119.494 90.9999 230.617 90.9999 367.695Z" fill="#0F97FD"/>
<path d="M917.252 388.146C917.252 556.027 1053.47 692.122 1221.51 692.122C1389.55 692.122 1525.77 556.027 1525.77 388.146C1525.77 220.264 1389.55 84.1694 1221.51 84.1694C1053.47 84.1694 917.252 220.264 917.252 388.146Z" fill="#0F97FD"/>
<path d="M1244.77 388.146C1244.77 556.027 1381 692.122 1549.04 692.122C1717.08 692.122 1853.3 556.027 1853.3 388.146C1853.3 220.264 1717.08 84.1694 1549.04 84.1694C1381 84.1694 1244.77 220.264 1244.77 388.146Z" fill="#0F97FD"/>
<path d="M629.409 535.318C629.409 437.016 549.631 357.327 451.22 357.327C352.81 357.327 273.032 437.016 273.032 535.318C273.032 633.619 352.81 713.307 451.22 713.307C549.631 713.307 629.409 633.619 629.409 535.318Z" fill="#0F97FD"/>
<path d="M1396.76 471.696C1396.76 386.78 1327.84 317.942 1242.83 317.942C1157.82 317.942 1088.91 386.78 1088.91 471.696C1088.91 556.611 1157.82 625.449 1242.83 625.449C1327.84 625.449 1396.76 556.611 1396.76 471.696Z" fill="#0F97FD"/>
<path d="M1803.18 471.696C1803.18 327.381 1686.06 210.391 1541.58 210.391C1397.11 210.391 1279.99 327.381 1279.99 471.696C1279.99 616.01 1397.11 733 1541.58 733C1686.06 733 1803.18 616.01 1803.18 471.696Z" fill="#0F97FD"/>
<path d="M1875.97 482.299C1875.97 370.612 1785.33 280.072 1673.52 280.072C1561.7 280.072 1471.06 370.612 1471.06 482.299C1471.06 593.986 1561.7 684.526 1673.52 684.526C1785.33 684.526 1875.97 593.986 1875.97 482.299Z" fill="#0F97FD"/>
<path d="M1202.64 465.636C1202.64 328.851 1091.63 217.965 954.697 217.965C817.759 217.965 706.75 328.851 706.75 465.636C706.75 602.421 817.759 713.307 954.697 713.307C1091.63 713.307 1202.64 602.421 1202.64 465.636Z" fill="#0F97FD"/>
<path d="M935.741 465.636C935.741 328.851 824.731 217.965 687.794 217.965C550.856 217.965 439.846 328.851 439.846 465.636C439.846 602.421 550.856 713.307 687.794 713.307C824.731 713.307 935.741 602.421 935.741 465.636Z" fill="#0F97FD"/>
<path d="M234.386 470.657C234.386 631.103 104.238 761.171 -56.307 761.171C-216.852 761.171 -347 631.103 -347 470.657C-347 310.21 -216.852 180.142 -56.307 180.142C104.238 180.142 234.386 310.21 234.386 470.657Z" fill="#0F97FD"/>
<path d="M1486.22 574.5C1486.22 713.099 1373.8 825.455 1235.11 825.455C1096.43 825.455 984.003 713.099 984.003 574.5C984.003 435.901 1096.43 323.545 1235.11 323.545C1373.8 323.545 1486.22 435.901 1486.22 574.5Z" fill="#0F97FD"/>
<path d="M2149.25 574.5C2149.25 810.049 1958.18 1001 1722.49 1001C1486.79 1001 1295.72 810.049 1295.72 574.5C1295.72 338.951 1486.79 148 1722.49 148C1958.18 148 2149.25 338.951 2149.25 574.5Z" fill="#0F97FD"/>
<path d="M2268 557.193C2268 739.488 2120.13 887.267 1937.72 887.267C1755.32 887.267 1607.45 739.488 1607.45 557.193C1607.45 374.898 1755.32 227.119 1937.72 227.119C2120.13 227.119 2268 374.898 2268 557.193Z" fill="#0F97FD"/>
<path d="M1169.55 584.39C1169.55 807.65 988.453 988.638 765.055 988.638C541.658 988.638 360.559 807.65 360.559 584.39C360.559 361.13 541.658 180.142 765.055 180.142C988.453 180.142 1169.55 361.13 1169.55 584.39Z" fill="#0F97FD"/>
<path d="M734.131 584.39C734.131 807.65 553.031 988.638 329.634 988.638C106.237 988.638 -74.8619 807.65 -74.8619 584.39C-74.8619 361.13 106.237 180.142 329.634 180.142C553.031 180.142 734.131 361.13 734.131 584.39Z" fill="#0F97FD"/>
<path d="M1552.22 780.109C1552.22 649.381 1658.28 543.406 1789.11 543.406C1919.94 543.406 2026 649.381 2026 780.109C2026 910.836 1919.94 1016.81 1789.11 1016.81C1658.28 1016.81 1552.22 910.836 1552.22 780.109Z" fill="#0F97FD"/>
<path d="M532.082 695.5C532.082 582.574 623.699 491.029 736.715 491.029C849.73 491.029 941.347 582.574 941.347 695.5C941.347 808.426 849.73 899.971 736.715 899.971C623.699 899.971 532.082 808.426 532.082 695.5Z" fill="#0F97FD"/>
<path d="M-8.228 695.5C-8.228 503.581 147.476 348 339.546 348C531.617 348 687.321 503.581 687.321 695.5C687.321 887.419 531.617 1043 339.546 1043C147.476 1043 -8.228 887.419 -8.228 695.5Z" fill="#0F97FD"/>
<path d="M-105 709.601C-105 561.073 15.5013 440.667 164.147 440.667C312.793 440.667 433.294 561.073 433.294 709.601C433.294 858.13 312.793 978.536 164.147 978.536C15.5013 978.536 -105 858.13 -105 709.601Z" fill="#0F97FD"/>
<path d="M790.141 687.442C790.141 505.536 937.721 358.072 1119.77 358.072C1301.82 358.072 1449.4 505.536 1449.4 687.442C1449.4 869.348 1301.82 1016.81 1119.77 1016.81C937.721 1016.81 790.141 869.348 790.141 687.442Z" fill="#0F97FD"/>
<path d="M1144.97 687.442C1144.97 505.536 1292.55 358.072 1474.6 358.072C1656.65 358.072 1804.23 505.536 1804.23 687.442C1804.23 869.348 1656.65 1016.81 1474.6 1016.81C1292.55 1016.81 1144.97 869.348 1144.97 687.442Z" fill="#0F97FD"/>
<path d="M1620.68 450.623C1620.68 571.272 1718.58 669.077 1839.34 669.077C1960.1 669.077 2058 571.272 2058 450.623C2058 329.975 1960.1 232.169 1839.34 232.169C1718.58 232.169 1620.68 329.975 1620.68 450.623Z" fill="#0F97FD"/>
<path d="M679.053 528.709C679.053 632.929 763.619 717.416 867.937 717.416C972.255 717.416 1056.82 632.929 1056.82 528.709C1056.82 424.489 972.255 340.002 867.937 340.002C763.619 340.002 679.053 424.489 679.053 528.709Z" fill="#0F97FD"/>
<path d="M180.324 528.709C180.324 705.832 324.045 849.418 501.334 849.418C678.623 849.418 822.344 705.832 822.344 528.709C822.344 351.586 678.623 208 501.334 208C324.045 208 180.324 351.586 180.324 528.709Z" fill="#0F97FD"/>
<path d="M90.9999 515.695C90.9999 652.772 202.227 763.896 339.434 763.896C476.64 763.896 587.867 652.772 587.867 515.695C587.867 378.617 476.64 267.494 339.434 267.494C202.227 267.494 90.9999 378.617 90.9999 515.695Z" fill="#0F97FD"/>
<path d="M917.252 536.146C917.252 704.027 1053.47 840.122 1221.51 840.122C1389.55 840.122 1525.77 704.027 1525.77 536.146C1525.77 368.264 1389.55 232.169 1221.51 232.169C1053.47 232.169 917.252 368.264 917.252 536.146Z" fill="#0F97FD"/>
<path d="M1244.77 536.146C1244.77 704.027 1381 840.122 1549.04 840.122C1717.08 840.122 1853.3 704.027 1853.3 536.146C1853.3 368.264 1717.08 232.169 1549.04 232.169C1381 232.169 1244.77 368.264 1244.77 536.146Z" fill="#0F97FD"/>
<path d="M629.409 683.318C629.409 585.016 549.631 505.327 451.22 505.327C352.81 505.327 273.032 585.016 273.032 683.318C273.032 781.619 352.81 861.307 451.22 861.307C549.631 861.307 629.409 781.619 629.409 683.318Z" fill="#0F97FD"/>
<path d="M1396.76 619.696C1396.76 534.78 1327.84 465.942 1242.83 465.942C1157.82 465.942 1088.91 534.78 1088.91 619.696C1088.91 704.611 1157.82 773.449 1242.83 773.449C1327.84 773.449 1396.76 704.611 1396.76 619.696Z" fill="#0F97FD"/>
<path d="M1803.18 619.696C1803.18 475.381 1686.06 358.391 1541.58 358.391C1397.11 358.391 1279.99 475.381 1279.99 619.696C1279.99 764.01 1397.11 881 1541.58 881C1686.06 881 1803.18 764.01 1803.18 619.696Z" fill="#0F97FD"/>
<path d="M1875.97 630.299C1875.97 518.612 1785.33 428.072 1673.52 428.072C1561.7 428.072 1471.06 518.612 1471.06 630.299C1471.06 741.986 1561.7 832.526 1673.52 832.526C1785.33 832.526 1875.97 741.986 1875.97 630.299Z" fill="#0F97FD"/>
<path d="M1202.64 613.636C1202.64 476.851 1091.63 365.965 954.697 365.965C817.759 365.965 706.75 476.851 706.75 613.636C706.75 750.421 817.759 861.307 954.697 861.307C1091.63 861.307 1202.64 750.421 1202.64 613.636Z" fill="#0F97FD"/>
<path d="M935.741 613.636C935.741 476.851 824.731 365.965 687.794 365.965C550.856 365.965 439.846 476.851 439.846 613.636C439.846 750.421 550.856 861.307 687.794 861.307C824.731 861.307 935.741 750.421 935.741 613.636Z" fill="#0F97FD"/>
<path d="M234.386 550.656C234.386 711.103 104.238 841.171 -56.307 841.171C-216.852 841.171 -347 711.103 -347 550.656C-347 390.21 -216.852 260.142 -56.307 260.142C104.238 260.142 234.386 390.21 234.386 550.656Z" fill="#0F97FD"/>
<path d="M1486.22 654.5C1486.22 793.099 1373.8 905.455 1235.11 905.455C1096.43 905.455 984.003 793.099 984.003 654.5C984.003 515.901 1096.43 403.545 1235.11 403.545C1373.8 403.545 1486.22 515.901 1486.22 654.5Z" fill="#0F97FD"/>
<path d="M2149.25 654.5C2149.25 890.049 1958.18 1081 1722.49 1081C1486.79 1081 1295.72 890.049 1295.72 654.5C1295.72 418.951 1486.79 228 1722.49 228C1958.18 228 2149.25 418.951 2149.25 654.5Z" fill="#0F97FD"/>
<path d="M2268 637.193C2268 819.488 2120.13 967.267 1937.72 967.267C1755.32 967.267 1607.45 819.488 1607.45 637.193C1607.45 454.898 1755.32 307.119 1937.72 307.119C2120.13 307.119 2268 454.898 2268 637.193Z" fill="#0F97FD"/>
<path d="M1169.55 664.39C1169.55 887.65 988.453 1068.64 765.055 1068.64C541.658 1068.64 360.559 887.65 360.559 664.39C360.559 441.13 541.658 260.142 765.055 260.142C988.453 260.142 1169.55 441.13 1169.55 664.39Z" fill="#0F97FD"/>
<path d="M734.131 664.39C734.131 887.65 553.031 1068.64 329.634 1068.64C106.237 1068.64 -74.8619 887.65 -74.8619 664.39C-74.8619 441.13 106.237 260.142 329.634 260.142C553.031 260.142 734.131 441.13 734.131 664.39Z" fill="#0F97FD"/>
<path d="M1552.22 860.109C1552.22 729.381 1658.28 623.406 1789.11 623.406C1919.94 623.406 2026 729.381 2026 860.109C2026 990.836 1919.94 1096.81 1789.11 1096.81C1658.28 1096.81 1552.22 990.836 1552.22 860.109Z" fill="#0F97FD"/>
<path d="M532.082 775.5C532.082 662.574 623.699 571.029 736.715 571.029C849.73 571.029 941.347 662.574 941.347 775.5C941.347 888.426 849.73 979.971 736.715 979.971C623.699 979.971 532.082 888.426 532.082 775.5Z" fill="#0F97FD"/>
<path d="M-8.228 775.5C-8.228 583.581 147.476 428 339.546 428C531.617 428 687.321 583.581 687.321 775.5C687.321 967.419 531.617 1123 339.546 1123C147.476 1123 -8.228 967.419 -8.228 775.5Z" fill="#0F97FD"/>
<path d="M-105 789.601C-105 641.073 15.5013 520.667 164.147 520.667C312.793 520.667 433.294 641.073 433.294 789.601C433.294 938.13 312.793 1058.54 164.147 1058.54C15.5013 1058.54 -105 938.13 -105 789.601Z" fill="#0F97FD"/>
<path d="M790.141 767.442C790.141 585.536 937.721 438.072 1119.77 438.072C1301.82 438.072 1449.4 585.536 1449.4 767.442C1449.4 949.348 1301.82 1096.81 1119.77 1096.81C937.721 1096.81 790.141 949.348 790.141 767.442Z" fill="#0F97FD"/>
<path d="M1144.97 767.442C1144.97 585.536 1292.55 438.072 1474.6 438.072C1656.65 438.072 1804.23 585.536 1804.23 767.442C1804.23 949.348 1656.65 1096.81 1474.6 1096.81C1292.55 1096.81 1144.97 949.348 1144.97 767.442Z" fill="#0F97FD"/>
<path d="M1620.68 530.623C1620.68 651.272 1718.58 749.077 1839.34 749.077C1960.1 749.077 2058 651.272 2058 530.623C2058 409.975 1960.1 312.169 1839.34 312.169C1718.58 312.169 1620.68 409.975 1620.68 530.623Z" fill="#0F97FD"/>
<path d="M679.053 608.709C679.053 712.929 763.619 797.416 867.937 797.416C972.255 797.416 1056.82 712.929 1056.82 608.709C1056.82 504.489 972.255 420.002 867.937 420.002C763.619 420.002 679.053 504.489 679.053 608.709Z" fill="#0F97FD"/>
<path d="M180.324 608.709C180.324 785.832 324.045 929.418 501.334 929.418C678.623 929.418 822.344 785.832 822.344 608.709C822.344 431.586 678.623 288 501.334 288C324.045 288 180.324 431.586 180.324 608.709Z" fill="#0F97FD"/>
<path d="M90.9999 595.695C90.9999 732.772 202.227 843.896 339.434 843.896C476.64 843.896 587.867 732.772 587.867 595.695C587.867 458.617 476.64 347.494 339.434 347.494C202.227 347.494 90.9999 458.617 90.9999 595.695Z" fill="#0F97FD"/>
<path d="M917.252 616.146C917.252 784.027 1053.47 920.122 1221.51 920.122C1389.55 920.122 1525.77 784.027 1525.77 616.146C1525.77 448.264 1389.55 312.169 1221.51 312.169C1053.47 312.169 917.252 448.264 917.252 616.146Z" fill="#0F97FD"/>
<path d="M1244.77 616.146C1244.77 784.027 1381 920.122 1549.04 920.122C1717.08 920.122 1853.3 784.027 1853.3 616.146C1853.3 448.264 1717.08 312.169 1549.04 312.169C1381 312.169 1244.77 448.264 1244.77 616.146Z" fill="#0F97FD"/>
<path d="M629.409 763.318C629.409 665.016 549.631 585.328 451.22 585.328C352.81 585.328 273.032 665.016 273.032 763.318C273.032 861.619 352.81 941.307 451.22 941.307C549.631 941.307 629.409 861.619 629.409 763.318Z" fill="#0F97FD"/>
<path d="M1396.76 699.696C1396.76 614.78 1327.84 545.943 1242.83 545.943C1157.82 545.943 1088.91 614.78 1088.91 699.696C1088.91 784.611 1157.82 853.449 1242.83 853.449C1327.84 853.449 1396.76 784.611 1396.76 699.696Z" fill="#0F97FD"/>
<path d="M1803.18 699.696C1803.18 555.381 1686.06 438.391 1541.58 438.391C1397.11 438.391 1279.99 555.381 1279.99 699.696C1279.99 844.01 1397.11 961 1541.58 961C1686.06 961 1803.18 844.01 1803.18 699.696Z" fill="#0F97FD"/>
<path d="M1875.97 710.299C1875.97 598.612 1785.33 508.072 1673.52 508.072C1561.7 508.072 1471.06 598.612 1471.06 710.299C1471.06 821.986 1561.7 912.526 1673.52 912.526C1785.33 912.526 1875.97 821.986 1875.97 710.299Z" fill="#0F97FD"/>
<path d="M1202.64 693.636C1202.64 556.851 1091.63 445.965 954.697 445.965C817.759 445.965 706.75 556.851 706.75 693.636C706.75 830.421 817.759 941.307 954.697 941.307C1091.63 941.307 1202.64 830.421 1202.64 693.636Z" fill="#0F97FD"/>
<path d="M935.741 693.636C935.741 556.851 824.731 445.965 687.794 445.965C550.856 445.965 439.846 556.851 439.846 693.636C439.846 830.421 550.856 941.307 687.794 941.307C824.731 941.307 935.741 830.421 935.741 693.636Z" fill="#0F97FD"/>
<path d="M234.386 698.656C234.386 859.103 104.238 989.171 -56.307 989.171C-216.852 989.171 -347 859.103 -347 698.656C-347 538.21 -216.852 408.142 -56.307 408.142C104.238 408.142 234.386 538.21 234.386 698.656Z" fill="#0F97FD"/>
<path d="M1486.22 802.5C1486.22 941.099 1373.8 1053.46 1235.11 1053.46C1096.43 1053.46 984.003 941.099 984.003 802.5C984.003 663.901 1096.43 551.545 1235.11 551.545C1373.8 551.545 1486.22 663.901 1486.22 802.5Z" fill="#0F97FD"/>
<path d="M2149.25 802.5C2149.25 1038.05 1958.18 1229 1722.49 1229C1486.79 1229 1295.72 1038.05 1295.72 802.5C1295.72 566.951 1486.79 376 1722.49 376C1958.18 376 2149.25 566.951 2149.25 802.5Z" fill="#0F97FD"/>
<path d="M2268 785.193C2268 967.488 2120.13 1115.27 1937.72 1115.27C1755.32 1115.27 1607.45 967.488 1607.45 785.193C1607.45 602.898 1755.32 455.119 1937.72 455.119C2120.13 455.119 2268 602.898 2268 785.193Z" fill="#0F97FD"/>
<path d="M1169.55 812.39C1169.55 1035.65 988.453 1216.64 765.055 1216.64C541.658 1216.64 360.559 1035.65 360.559 812.39C360.559 589.13 541.658 408.142 765.055 408.142C988.453 408.142 1169.55 589.13 1169.55 812.39Z" fill="#0F97FD"/>
<path d="M734.131 812.39C734.131 1035.65 553.031 1216.64 329.634 1216.64C106.237 1216.64 -74.8619 1035.65 -74.8619 812.39C-74.8619 589.13 106.237 408.142 329.634 408.142C553.031 408.142 734.131 589.13 734.131 812.39Z" fill="#0F97FD"/>
<path d="M1552.22 1008.11C1552.22 877.381 1658.28 771.406 1789.11 771.406C1919.94 771.406 2026 877.381 2026 1008.11C2026 1138.84 1919.94 1244.81 1789.11 1244.81C1658.28 1244.81 1552.22 1138.84 1552.22 1008.11Z" fill="#0F97FD"/>
<path d="M532.082 923.5C532.082 810.574 623.699 719.029 736.715 719.029C849.73 719.029 941.347 810.574 941.347 923.5C941.347 1036.43 849.73 1127.97 736.715 1127.97C623.699 1127.97 532.082 1036.43 532.082 923.5Z" fill="#0F97FD"/>
<path d="M-8.228 923.5C-8.228 731.581 147.476 576 339.546 576C531.617 576 687.321 731.581 687.321 923.5C687.321 1115.42 531.617 1271 339.546 1271C147.476 1271 -8.228 1115.42 -8.228 923.5Z" fill="#0F97FD"/>
<path d="M-105 937.601C-105 789.073 15.5013 668.667 164.147 668.667C312.793 668.667 433.294 789.073 433.294 937.601C433.294 1086.13 312.793 1206.54 164.147 1206.54C15.5013 1206.54 -105 1086.13 -105 937.601Z" fill="#0F97FD"/>
<path d="M790.141 915.442C790.141 733.536 937.721 586.072 1119.77 586.072C1301.82 586.072 1449.4 733.536 1449.4 915.442C1449.4 1097.35 1301.82 1244.81 1119.77 1244.81C937.721 1244.81 790.141 1097.35 790.141 915.442Z" fill="#0F97FD"/>
<path d="M1144.97 915.442C1144.97 733.536 1292.55 586.072 1474.6 586.072C1656.65 586.072 1804.23 733.536 1804.23 915.442C1804.23 1097.35 1656.65 1244.81 1474.6 1244.81C1292.55 1244.81 1144.97 1097.35 1144.97 915.442Z" fill="#0F97FD"/>
<path d="M1620.68 678.623C1620.68 799.272 1718.58 897.077 1839.34 897.077C1960.1 897.077 2058 799.272 2058 678.623C2058 557.975 1960.1 460.169 1839.34 460.169C1718.58 460.169 1620.68 557.975 1620.68 678.623Z" fill="#0F97FD"/>
<path d="M679.053 756.709C679.053 860.929 763.619 945.416 867.937 945.416C972.255 945.416 1056.82 860.929 1056.82 756.709C1056.82 652.489 972.255 568.002 867.937 568.002C763.619 568.002 679.053 652.489 679.053 756.709Z" fill="#0F97FD"/>
<path d="M180.324 756.709C180.324 933.832 324.045 1077.42 501.334 1077.42C678.623 1077.42 822.344 933.832 822.344 756.709C822.344 579.586 678.623 436 501.334 436C324.045 436 180.324 579.586 180.324 756.709Z" fill="#0F97FD"/>
<path d="M90.9999 743.695C90.9999 880.772 202.227 991.896 339.434 991.896C476.64 991.896 587.867 880.772 587.867 743.695C587.867 606.617 476.64 495.494 339.434 495.494C202.227 495.494 90.9999 606.617 90.9999 743.695Z" fill="#0F97FD"/>
<path d="M917.252 764.146C917.252 932.027 1053.47 1068.12 1221.51 1068.12C1389.55 1068.12 1525.77 932.027 1525.77 764.146C1525.77 596.264 1389.55 460.169 1221.51 460.169C1053.47 460.169 917.252 596.264 917.252 764.146Z" fill="#0F97FD"/>
<path d="M1244.77 764.146C1244.77 932.027 1381 1068.12 1549.04 1068.12C1717.08 1068.12 1853.3 932.027 1853.3 764.146C1853.3 596.264 1717.08 460.169 1549.04 460.169C1381 460.169 1244.77 596.264 1244.77 764.146Z" fill="#0F97FD"/>
<path d="M629.409 911.318C629.409 813.016 549.631 733.328 451.22 733.328C352.81 733.328 273.032 813.016 273.032 911.318C273.032 1009.62 352.81 1089.31 451.22 1089.31C549.631 1089.31 629.409 1009.62 629.409 911.318Z" fill="#0F97FD"/>
<path d="M1396.76 847.696C1396.76 762.78 1327.84 693.943 1242.83 693.943C1157.82 693.943 1088.91 762.78 1088.91 847.696C1088.91 932.611 1157.82 1001.45 1242.83 1001.45C1327.84 1001.45 1396.76 932.611 1396.76 847.696Z" fill="#0F97FD"/>
<path d="M1803.18 847.696C1803.18 703.381 1686.06 586.391 1541.58 586.391C1397.11 586.391 1279.99 703.381 1279.99 847.696C1279.99 992.01 1397.11 1109 1541.58 1109C1686.06 1109 1803.18 992.01 1803.18 847.696Z" fill="#0F97FD"/>
<path d="M1875.97 858.299C1875.97 746.612 1785.33 656.072 1673.52 656.072C1561.7 656.072 1471.06 746.612 1471.06 858.299C1471.06 969.986 1561.7 1060.53 1673.52 1060.53C1785.33 1060.53 1875.97 969.986 1875.97 858.299Z" fill="#0F97FD"/>
<path d="M1202.64 841.636C1202.64 704.851 1091.63 593.965 954.697 593.965C817.759 593.965 706.75 704.851 706.75 841.636C706.75 978.421 817.759 1089.31 954.697 1089.31C1091.63 1089.31 1202.64 978.421 1202.64 841.636Z" fill="#0F97FD"/>
<path d="M935.741 841.636C935.741 704.851 824.731 593.965 687.794 593.965C550.856 593.965 439.846 704.851 439.846 841.636C439.846 978.421 550.856 1089.31 687.794 1089.31C824.731 1089.31 935.741 978.421 935.741 841.636Z" fill="#0F97FD"/>
</g>
<defs>
<clipPath id="clip0_404_618">
<rect width="1920" height="147" fill="white"/>
</clipPath>
</defs>
</svg>
